<svg width="36" height="37" viewBox="0 0 36 37" fill="none" xmlns="http://www.w3.org/2000/svg">
<g clip-path="url(#clip0_383_27848)">
<path d="M0 28.5195H2.15385V30.6734L0.123077 28.6426" fill="#F96B2F"/>
<path d="M5.91064 33.8916H8.06449V36.0454L6.03372 34.0147" fill="#F96B2F"/>
<path d="M17.1953 22.6104H19.3492V24.7642L17.3184 22.7334" fill="#F96B2F"/>
<path d="M23.103 10.79H25.2569V12.9423L23.2261 10.9131" fill="#F96B2F"/>
<path d="M36 8.11088H33.8462V5.95703L35.877 7.9878" fill="#F96B2F"/>
<path d="M36 19.3931H33.8462V17.2393L35.877 19.27" fill="#F96B2F"/>
<path d="M8.06304 8.10943H2.15381V30.674H8.06304V36.0463H30.6277V30.674H36V19.3925H19.3461V24.7648H25.2553V31.211H12.8984V7.5725H25.2553V12.9448H36V8.10943H30.0907V2.2002H8.06304V8.10943Z" fill="#F96B2F"/>
<path d="M30.0893 2.19974H27.937V0.0458984L29.9662 2.07667" fill="#F96B2F"/>
<path d="M5.90923 5.95513H0V28.5197H5.90923V33.8921H28.4738V28.5197H33.8462V17.2382H17.1923V22.6105H23.1015V29.0567H10.7446V5.41821H23.1015V10.7905H33.8462V5.95513H27.9369V0.0458984H5.90923V5.95513Z" fill="#FFCF23"/>
</g>
<defs>
<clipPath id="clip0_383_27848">
<rect width="36" height="36" fill="white" transform="translate(0 0.0458984)"/>
</clipPath>
</defs>
</svg>
